<?xml version="1.0" standalone="no"?>
<!DOCTYPE svg PUBLIC "-//W3C//DTD SVG 20010904//EN"
 "http://www.w3.org/TR/2001/REC-SVG-20010904/DTD/svg10.dtd">
<svg version="1.0" xmlns="http://www.w3.org/2000/svg"
 width="192.000000pt" height="192.000000pt" viewBox="0 0 192.000000 192.000000"
 preserveAspectRatio="xMidYMid meet">
<metadata>
Created by potrace 1.16, written by Peter Selinger 2001-2019
</metadata>
<g transform="translate(0.000000,192.000000) scale(0.100000,-0.100000)"
fill="#000000" stroke="none">
<path d="M840 1694 c-25 -11 -40 -13 -52 -5 -12 8 -25 6 -45 -4 -15 -8 -33
-15 -40 -15 -19 0 -83 -66 -83 -85 0 -21 -24 -43 -74 -70 -20 -11 -38 -26 -41
-35 -7 -24 -25 -302 -20 -311 3 -4 1 -19 -5 -33 -8 -21 -6 -27 9 -35 15 -9 17
-7 14 13 -3 13 2 28 13 37 16 12 17 12 10 -1 -6 -13 -5 -13 6 0 7 9 21 14 31
12 9 -2 17 1 17 7 0 17 -31 42 -43 35 -8 -5 -9 -4 -2 4 6 5 19 12 30 14 11 2
19 10 17 16 -1 7 14 22 33 33 19 12 35 28 35 36 0 10 7 14 18 11 11 -3 19 0
19 8 0 8 -5 14 -10 14 -5 0 -4 7 3 15 7 9 14 23 15 33 9 73 21 88 90 110 17 5
29 15 27 22 -2 8 3 10 15 5 10 -4 36 -11 58 -14 22 -4 54 -14 71 -23 18 -8 63
-21 100 -27 38 -7 103 -26 145 -42 41 -16 83 -29 93 -29 9 0 26 -16 38 -36 15
-26 23 -32 29 -22 6 10 11 10 20 1 10 -10 10 -21 -1 -52 -16 -48 -8 -78 10
-38 13 26 30 37 30 18 0 -20 35 -3 41 20 12 43 10 109 -4 109 -6 0 -18 13 -25
29 -10 22 -17 27 -37 23 -20 -3 -25 0 -25 15 0 11 -7 28 -15 39 -8 10 -15 30
-15 44 0 23 -50 83 -66 80 -4 -1 -10 3 -14 10 -4 6 -15 12 -24 14 -10 1 -21 8
-26 15 -6 10 -15 11 -41 2 -36 -12 -56 -11 -52 2 2 4 -6 7 -18 7 -16 0 -19 -4
-15 -17 6 -15 4 -15 -13 2 -20 17 -20 19 -3 32 15 13 11 14 -38 8 -30 -3 -70
-8 -87 -11 -26 -5 -33 -3 -33 10 0 20 -24 20 -70 0z"/>
<path d="M829 1112 c-35 -23 -63 -52 -50 -52 5 0 32 5 59 11 43 10 58 9 123
-11 41 -12 79 -26 84 -30 6 -4 20 -11 33 -14 19 -7 22 -4 22 23 0 19 -5 31
-13 31 -7 0 -19 6 -25 12 -11 11 -59 23 -177 42 -19 4 -39 -1 -56 -12z"/>
<path d="M1323 1078 c-12 -6 -45 -42 -73 -79 -44 -59 -51 -74 -45 -99 6 -29 8
-30 47 -24 29 5 42 3 49 -7 6 -10 9 -4 9 19 0 30 -1 32 -16 18 -15 -15 -44
-22 -44 -10 0 3 6 12 14 20 8 7 16 19 19 26 4 10 7 11 18 1 23 -23 38 -16 30
15 -5 19 -16 29 -37 33 -26 5 -23 7 23 14 43 6 52 11 56 32 2 13 -2 30 -10 39
-8 8 -15 14 -16 13 -1 0 -12 -5 -24 -11z"/>
<path d="M545 1062 c-5 -4 -11 -32 -13 -62 -3 -71 -22 -190 -34 -212 -5 -10
-5 -18 -1 -18 5 0 7 -17 5 -39 -3 -25 1 -43 11 -52 13 -12 12 -20 -5 -64 -16
-43 -68 -113 -68 -93 0 4 7 14 16 22 8 9 11 16 6 16 -5 0 -15 -7 -22 -15 -7
-8 -16 -13 -20 -10 -21 13 -35 -68 -16 -93 7 -9 3 -15 -12 -19 -16 -4 -19 -9
-13 -22 12 -22 6 -120 -7 -132 -7 -5 -10 -6 -7 -3 3 4 -1 14 -8 22 -10 13 -9
15 3 8 8 -4 6 0 -5 9 -19 15 -20 15 -26 -7 -5 -18 2 -30 30 -55 20 -17 39 -28
42 -25 6 7 24 62 48 147 15 55 68 145 86 145 9 0 12 -6 8 -17 -4 -10 -2 -14 5
-9 6 4 16 -3 23 -16 7 -12 17 -28 23 -35 29 -32 36 -43 31 -43 -3 0 17 -22 44
-50 28 -28 57 -50 66 -50 8 0 15 -7 15 -16 0 -8 4 -13 9 -9 6 3 15 -3 20 -13
9 -17 53 -34 116 -47 11 -2 37 -10 57 -19 64 -27 92 -21 141 29 l45 45 -8 -32
c-4 -18 -13 -45 -19 -60 -6 -16 -9 -28 -6 -28 2 0 -3 -16 -11 -35 -8 -19 -12
-35 -9 -35 3 0 1 -9 -5 -20 -12 -23 -18 -23 86 0 49 11 52 13 56 46 2 20 0 37
-4 40 -4 3 -8 0 -8 -7 0 -8 -7 -6 -19 5 -19 17 -27 71 -8 59 6 -4 7 -1 1 8 -5
8 -10 37 -11 64 -2 37 2 53 14 63 12 8 13 12 3 12 -10 0 -9 4 3 18 13 14 45
77 52 102 1 3 6 16 12 30 6 14 13 50 17 80 l6 55 -16 -30 c-17 -29 -17 -29
-25 -7 -7 19 -12 20 -35 12 -15 -6 -35 -8 -45 -5 -15 5 -18 3 -12 -12 3 -10 3
-15 -1 -11 -4 3 -9 14 -10 25 -2 10 -9 18 -17 19 -8 0 -30 2 -49 4 l-35 2 30
8 c29 7 29 8 4 9 -14 0 -34 -7 -45 -17 -10 -9 -30 -17 -44 -16 -34 2 -95 -39
-113 -76 -11 -21 -12 -30 -4 -30 7 0 6 -4 -3 -10 -8 -5 -24 -10 -35 -10 -17 0
-18 2 -5 11 11 8 8 9 -13 4 -17 -3 -26 -2 -23 3 3 6 -1 15 -9 22 -8 7 -15 9
-15 6 0 -4 -13 2 -28 13 -22 15 -32 17 -40 9 -9 -9 -12 -5 -12 19 0 24 -8 36
-35 54 -19 13 -35 28 -35 32 0 5 -9 5 -20 2 -15 -5 -20 -2 -20 14 0 11 5 23
10 26 6 3 10 12 10 18 0 7 -7 3 -15 -7 -20 -26 -28 -16 -15 18 6 18 7 59 0
124 -10 107 -9 203 3 195 4 -2 7 3 7 11 0 17 -9 20 -25 8z m638 -529 c-7 -2
-13 -20 -13 -39 0 -26 -3 -33 -12 -28 -8 5 -7 0 2 -11 9 -11 10 -16 3 -11 -17
9 -17 -6 -1 -22 10 -10 8 -12 -7 -9 -11 1 -26 7 -34 11 -10 7 -12 5 -6 -4 5
-8 3 -11 -6 -8 -8 3 -13 11 -11 17 4 22 -25 11 -38 -15 -13 -23 -15 -24 -21
-7 -7 17 -8 16 -8 -2 -1 -16 -3 -17 -10 -6 -8 12 -13 11 -30 -10 -11 -13 -20
-18 -21 -11 0 10 -5 10 -20 2 -11 -6 -21 -8 -21 -5 -1 3 -2 10 -3 16 0 5 -12
18 -25 28 l-24 18 21 31 c12 16 22 35 22 41 0 10 18 16 65 23 36 5 210 6 198
1z"/>
<path d="M833 1006 c-38 -17 -42 -35 -11 -62 12 -10 18 -13 14 -7 -4 7 -3 20
2 29 8 14 11 11 20 -15 12 -34 41 -42 62 -16 10 12 10 18 1 29 -13 16 -5 16
37 2 17 -6 22 -13 19 -27 -3 -10 -1 -19 4 -19 5 0 9 4 9 9 0 5 8 8 17 7 10 -2
26 6 37 16 19 17 19 19 3 35 -9 9 -26 17 -39 19 -13 1 -50 4 -83 8 -43 5 -69
2 -92 -8z"/>
</g>
</svg>
